<mxfile host="65bd71144e">
    <diagram id="-NjVqhTNoegptHv4SF7z" name="学生登录并进行选题的活动图">
        <mxGraphModel dx="784" dy="552" grid="1" gridSize="10" guides="1" tooltips="1" connect="1" arrows="1" fold="1" page="1" pageScale="1" pageWidth="827" pageHeight="1169" background="none" math="0" shadow="0">
            <root>
                <mxCell id="0"/>
                <mxCell id="1" parent="0"/>
                <mxCell id="2" style="ellipse;shape=startState;fillColor=#000000;" vertex="1" parent="1">
                    <mxGeometry x="345" y="40" width="30" height="30" as="geometry"/>
                </mxCell>
                <mxCell id="3" value="输入用户名和密码" style="rounded=1;whiteSpace=wrap;html=1;fillColor=none;" vertex="1" parent="1">
                    <mxGeometry x="280" y="100" width="160" height="50" as="geometry"/>
                </mxCell>
                <mxCell id="4" edge="1" parent="1" source="2" target="3">
                    <mxGeometry relative="1" as="geometry"/>
                </mxCell>
                <mxCell id="22" style="edgeStyle=none;html=1;exitX=0;exitY=1;exitDx=0;exitDy=0;entryX=0.5;entryY=0;entryDx=0;entryDy=0;" edge="1" parent="1" source="5" target="11">
                    <mxGeometry relative="1" as="geometry"/>
                </mxCell>
                <mxCell id="23" style="edgeStyle=none;html=1;exitX=1;exitY=1;exitDx=0;exitDy=0;" edge="1" parent="1" source="5" target="20">
                    <mxGeometry relative="1" as="geometry"/>
                </mxCell>
                <mxCell id="5" value="" style="rhombus;whiteSpace=wrap;html=1;" vertex="1" parent="1">
                    <mxGeometry x="340" y="180" width="40" height="40" as="geometry"/>
                </mxCell>
                <mxCell id="6" edge="1" parent="1" source="3" target="5">
                    <mxGeometry relative="1" as="geometry"/>
                </mxCell>
                <mxCell id="11" value="查看可选题目" style="rounded=1;whiteSpace=wrap;html=1;fillColor=none;" vertex="1" parent="1">
                    <mxGeometry x="200" y="270" width="160" height="50" as="geometry"/>
                </mxCell>
                <mxCell id="13" value="选择题目并提交" style="rounded=1;whiteSpace=wrap;html=1;fillColor=none;" vertex="1" parent="1">
                    <mxGeometry x="200" y="370" width="160" height="50" as="geometry"/>
                </mxCell>
                <mxCell id="14" edge="1" parent="1" source="11" target="13">
                    <mxGeometry relative="1" as="geometry"/>
                </mxCell>
                <mxCell id="15" value="&#10;&#10;&#10;&#10;确认并结束流程" style="ellipse;shape=endState;fillColor=#000000;" vertex="1" parent="1">
                    <mxGeometry x="265" y="480" width="30" height="30" as="geometry"/>
                </mxCell>
                <mxCell id="16" edge="1" parent="1" source="13" target="15">
                    <mxGeometry relative="1" as="geometry"/>
                </mxCell>
                <mxCell id="17" value="用户名/密码有效" style="rounded=1;whiteSpace=wrap;html=1;strokeColor=none;fillColor=none;" vertex="1" parent="1">
                    <mxGeometry x="222.5" y="210" width="115" height="30" as="geometry"/>
                </mxCell>
                <mxCell id="18" value="用户名/密码无效" style="rounded=1;whiteSpace=wrap;html=1;strokeColor=none;fillColor=none;" vertex="1" parent="1">
                    <mxGeometry x="399" y="210" width="115" height="30" as="geometry"/>
                </mxCell>
                <mxCell id="19" value="继续重新输入" style="rounded=1;whiteSpace=wrap;html=1;fillColor=none;" vertex="1" parent="1">
                    <mxGeometry x="470" y="350" width="120" height="50" as="geometry"/>
                </mxCell>
                <mxCell id="24" style="edgeStyle=none;html=1;exitX=0;exitY=1;exitDx=0;exitDy=0;entryX=1;entryY=0;entryDx=0;entryDy=0;" edge="1" parent="1" source="20" target="21">
                    <mxGeometry relative="1" as="geometry"/>
                </mxCell>
                <mxCell id="25" style="edgeStyle=none;html=1;exitX=1;exitY=1;exitDx=0;exitDy=0;entryX=0.5;entryY=0;entryDx=0;entryDy=0;" edge="1" parent="1" source="20" target="19">
                    <mxGeometry relative="1" as="geometry"/>
                </mxCell>
                <mxCell id="20" value="" style="rhombus;whiteSpace=wrap;html=1;" vertex="1" parent="1">
                    <mxGeometry x="440" y="260" width="40" height="40" as="geometry"/>
                </mxCell>
                <mxCell id="21" value="&#10;&#10;&#10;&#10;结束流程" style="ellipse;shape=endState;fillColor=#000000;" vertex="1" parent="1">
                    <mxGeometry x="384" y="340" width="30" height="30" as="geometry"/>
                </mxCell>
                <mxCell id="29" value="" style="curved=1;endArrow=classic;html=1;entryX=1;entryY=0.5;entryDx=0;entryDy=0;exitX=1;exitY=0.5;exitDx=0;exitDy=0;" edge="1" parent="1" source="19" target="3">
                    <mxGeometry width="50" height="50" relative="1" as="geometry">
                        <mxPoint x="600" y="240" as="sourcePoint"/>
                        <mxPoint x="650" y="190" as="targetPoint"/>
                        <Array as="points">
                            <mxPoint x="670" y="360"/>
                            <mxPoint x="670" y="230"/>
                            <mxPoint x="550" y="140"/>
                        </Array>
                    </mxGeometry>
                </mxCell>
            </root>
        </mxGraphModel>
    </diagram>
</mxfile>